<svg xmlns="http://www.w3.org/2000/svg" viewBox="0 0 32 32" width="32" height="32">
  <defs>
    <linearGradient id="fgGrad" x1="0%" y1="0%" x2="100%" y2="100%">
      <stop offset="0%" style="stop-color:#8B5CF6"/>
      <stop offset="100%" style="stop-color:#6366F1"/>
    </linearGradient>
  </defs>

  <!-- Background circle -->
  <circle cx="16" cy="16" r="15" fill="url(#fgGrad)"/>

  <!-- Ghost body -->
  <path d="M16 5
           C10 5 7 10 7 15
           L7 24
           Q8 23 9 24
           Q10 25 11 24
           Q12 23 13 24
           Q14 25 15 24
           Q16 25 17 24
           Q18 23 19 24
           Q20 25 21 24
           Q22 23 23 24
           Q24 25 25 24
           L25 15
           C25 10 22 5 16 5 Z"
        fill="white"/>

  <!-- Left eye -->
  <ellipse cx="12" cy="13" rx="2" ry="2.5" fill="#1F2937"/>

  <!-- Right eye -->
  <ellipse cx="20" cy="13" rx="2" ry="2.5" fill="#1F2937"/>

  <!-- Smile -->
  <path d="M12 17 Q16 20 20 17" stroke="#1F2937" stroke-width="1" fill="none" stroke-linecap="round"/>
</svg>
